<svg xmlns="http://www.w3.org/2000/svg" width="860" height="150" viewBox="0 0 860 150"><defs><linearGradient id="bg" x1="0" y1="0" x2="0" y2="1"><stop offset="0%" stop-color="#1a1b27"/><stop offset="100%" stop-color="#16161e"/></linearGradient><linearGradient id="grad" x1="0" y1="0" x2="1" y2="0"><stop offset="0%" stop-color="#7aa2f7"/><stop offset="100%" stop-color="#bb9af7"/></linearGradient></defs><rect x="0.5" y="0.5" width="859" height="149" rx="12" fill="url(#bg)" stroke="#2e344f"/><text x="25" y="34" fill="#7aa2f7" font-size="16" font-weight="700" font-family="Segoe UI, Ubuntu, Helvetica, Arial, sans-serif">Most Used Languages</text><rect x="25" y="42" width="56" height="3" rx="1.5" fill="url(#grad)"/><clipPath id="bar"><rect x="25" y="62" width="810" height="12" rx="6"/></clipPath><rect x="25" y="62" width="810" height="12" rx="6" fill="#2d3149"/><g clip-path="url(#bar)"><rect x="25.0" y="62" width="516.5" height="12" fill="#e34c26"/><rect x="541.5" y="62" width="267.9" height="12" fill="#b07219"/><rect x="809.4" y="62" width="17.7" height="12" fill="#563d7c"/><rect x="827.2" y="62" width="7.8" height="12" fill="#f1e05a"/></g><circle cx="30" cy="99" r="5" fill="#e34c26"/><text x="43" y="103" fill="#c0caf5" font-size="13" font-weight="600" font-family="Segoe UI, Ubuntu, Helvetica, Arial, sans-serif">HTML 63.8%</text><circle cx="300" cy="99" r="5" fill="#b07219"/><text x="313" y="103" fill="#c0caf5" font-size="13" font-weight="600" font-family="Segoe UI, Ubuntu, Helvetica, Arial, sans-serif">Java 33.1%</text><circle cx="570" cy="99" r="5" fill="#563d7c"/><text x="583" y="103" fill="#c0caf5" font-size="13" font-weight="600" font-family="Segoe UI, Ubuntu, Helvetica, Arial, sans-serif">CSS 2.2%</text><circle cx="30" cy="125" r="5" fill="#f1e05a"/><text x="43" y="129" fill="#c0caf5" font-size="13" font-weight="600" font-family="Segoe UI, Ubuntu, Helvetica, Arial, sans-serif">JavaScript 1.0%</text></svg>